<svg width="705" height="521" viewBox="0 0 705 521" fill="none" xmlns="http://www.w3.org/2000/svg">
<path d="M110.372 252.922C117.995 317.092 152.744 405.064 235.036 519.55H112.328C20.9568 379.802 -6.9963 267.845 1.70807 184.19C10.4136 100.524 55.7875 45.1498 111.104 18.5645C166.428 -8.02417 231.698 -5.81774 280.202 25.6843C328.696 57.1789 360.469 117.98 348.759 208.66C342.9 247.694 327.266 281.425 314.05 309.937C311.658 315.099 309.345 320.089 307.183 324.909C300.137 340.623 294.695 354.538 293.398 366.647C292.099 378.771 294.955 389.098 304.504 397.603C313.357 405.494 323.12 407.531 332.868 405.321C342.604 403.114 352.31 396.674 361.081 387.639C378.622 369.569 392.485 341.062 395.422 314.998C402.263 254.366 389.767 200.786 379.095 155.026C377.096 146.455 375.161 138.158 373.43 130.14C367.938 104.72 364.491 82.1224 367.486 62.4755C370.48 42.8439 379.909 26.1502 400.203 12.5345C439.206 -13.6388 541.069 -7.05046 581.901 124.934C589.1 148.19 593.528 175.92 596.813 200.067C600.519 227.304 602.856 252.339 604.976 275.052C605.605 281.797 606.216 288.338 606.837 294.67C609.551 322.323 612.477 346.018 618.131 365.469C623.785 384.923 632.174 400.15 645.827 410.847C659.447 421.518 678.28 427.663 704.8 429.032V519.551C638.146 519.827 595.669 503.193 567.987 475.974C540.272 448.723 527.355 410.832 519.886 368.573C516.152 347.445 513.78 325.232 511.599 302.718C511.216 298.758 510.838 294.788 510.46 290.814C508.688 272.196 506.906 253.468 504.458 235.077C498.517 190.444 488.65 147.76 465.459 113.369C465.158 112.922 464.905 112.568 464.697 112.302C464.491 112.04 464.32 111.85 464.182 111.743C464.117 111.691 464.036 111.64 463.947 111.625C463.898 111.617 463.841 111.618 463.783 111.643C463.726 111.668 463.685 111.71 463.657 111.753C463.608 111.832 463.598 111.926 463.596 112.003C463.594 112.086 463.603 112.183 463.62 112.289C463.685 112.711 463.884 113.392 464.175 114.259C464.467 115.132 464.857 116.206 465.31 117.422C465.691 118.447 466.118 119.573 466.569 120.764C468.261 125.23 470.3 130.614 471.624 135.038C484.983 179.791 500.26 246.714 496.712 313.623C493.163 380.529 470.793 447.398 408.882 492.087C382.913 510.828 349.028 521.117 315.889 520.793C282.751 520.468 250.377 509.532 227.411 485.844C195.49 451.372 184.967 408.016 187.01 364.979C189.052 321.939 203.662 279.229 221.989 246.077L221.99 246.075C251.172 191.56 246.027 152.668 226.92 132.206C207.818 111.749 174.838 109.806 148.569 129.04C122.292 148.28 102.741 188.686 110.372 252.922Z" stroke="#969696" stroke-opacity="0.3" stroke-width="0.4"/>
</svg>
